<svg width="512" height="512" viewBox="0 0 512 512" fill="none" xmlns="http://www.w3.org/2000/svg">
<circle cx="256" cy="256" r="256" fill="#FED046"/>
<circle cx="125.9" cy="198.1" r="51.7" fill="#F5F5F5"/>
<circle cx="233.6" cy="198.1" r="51.7" fill="#F5F5F5"/>
<mask id="mask0_512" style="mask-type:alpha" maskUnits="userSpaceOnUse" x="72" y="144" width="108" height="108">
<circle cx="125.9" cy="198.1" r="51.7" fill="#F5F5F5"/>
</mask>
<g mask="url(#mask0_512)">
<circle cx="82.7" cy="198.1" r="51.7" fill="#0A0A0A"/>
</g>
<mask id="mask1_512" style="mask-type:alpha" maskUnits="userSpaceOnUse" x="181" y="144" width="108" height="108">
<circle cx="233.6" cy="198.1" r="51.7" fill="#F5F5F5"/>
</mask>
<g mask="url(#mask1_512)">
<circle cx="190.4" cy="198.1" r="51.7" fill="#0A0A0A"/>
</g>
<circle cx="125.9" cy="198.1" r="51.7" fill="#F5F5F5"/>
<circle cx="233.6" cy="198.1" r="51.7" fill="#F5F5F5"/>
<mask id="mask2_512" style="mask-type:alpha" maskUnits="userSpaceOnUse" x="72" y="144" width="108" height="108">
<circle cx="125.9" cy="198.1" r="51.7" fill="#F5F5F5"/>
</mask>
<g mask="url(#mask2_512)">
<circle cx="82.7" cy="198.1" r="51.7" fill="#0A0A0A"/>
</g>
<mask id="mask3_512" style="mask-type:alpha" maskUnits="userSpaceOnUse" x="181" y="144" width="108" height="108">
<circle cx="233.6" cy="198.1" r="51.7" fill="#F5F5F5"/>
</mask>
<g mask="url(#mask3_512)">
<circle cx="190.4" cy="198.1" r="51.7" fill="#0A0A0A"/>
</g>
<path d="M163.4 249.6C163.4 265.1 190.9 265.6 190.9 249.6" stroke="#0A0A0A" stroke-width="7.7" stroke-linecap="round"/>
<path d="M144.8 207.2C144.8 210.7 143.3 214 140.8 216.5C138.3 219 134.9 220.4 131.4 220.4C127.9 220.4 124.5 219 122 216.5C119.5 214 118 210.7 118 207.2L131.4 207.2H144.8Z" fill="#F5F5F5"/>
<path d="M252.5 207.2C252.5 210.7 251 214 248.5 216.5C246 219 242.6 220.4 239.1 220.4C235.6 220.4 232.2 219 229.7 216.5C227.2 214 225.7 210.7 225.7 207.2L239.1 207.2H252.5Z" fill="#F5F5F5"/>
</svg>
