<svg width="192" height="192" viewBox="0 0 192 192" fill="none" xmlns="http://www.w3.org/2000/svg">
<circle cx="96" cy="96" r="96" fill="#FED046"/>
<circle cx="47.2" cy="74.3" r="19.4" fill="#F5F5F5"/>
<circle cx="87.6" cy="74.3" r="19.4" fill="#F5F5F5"/>
<mask id="mask0_192" style="mask-type:alpha" maskUnits="userSpaceOnUse" x="27" y="54" width="40" height="40">
<circle cx="47.2" cy="74.3" r="19.4" fill="#F5F5F5"/>
</mask>
<g mask="url(#mask0_192)">
<circle cx="31" cy="74.3" r="19.4" fill="#0A0A0A"/>
</g>
<mask id="mask1_192" style="mask-type:alpha" maskUnits="userSpaceOnUse" x="68" y="54" width="40" height="40">
<circle cx="87.6" cy="74.3" r="19.4" fill="#F5F5F5"/>
</mask>
<g mask="url(#mask1_192)">
<circle cx="71.4" cy="74.3" r="19.4" fill="#0A0A0A"/>
</g>
<circle cx="47.2" cy="74.3" r="19.4" fill="#F5F5F5"/>
<circle cx="87.6" cy="74.3" r="19.4" fill="#F5F5F5"/>
<mask id="mask2_192" style="mask-type:alpha" maskUnits="userSpaceOnUse" x="27" y="54" width="40" height="40">
<circle cx="47.2" cy="74.3" r="19.4" fill="#F5F5F5"/>
</mask>
<g mask="url(#mask2_192)">
<circle cx="31" cy="74.3" r="19.4" fill="#0A0A0A"/>
</g>
<mask id="mask3_192" style="mask-type:alpha" maskUnits="userSpaceOnUse" x="68" y="54" width="40" height="40">
<circle cx="87.6" cy="74.3" r="19.4" fill="#F5F5F5"/>
</mask>
<g mask="url(#mask3_192)">
<circle cx="71.4" cy="74.3" r="19.4" fill="#0A0A0A"/>
</g>
<path d="M61.3 93.6C61.3 99.4 71.6 99.6 71.6 93.6" stroke="#0A0A0A" stroke-width="2.9" stroke-linecap="round"/>
<path d="M54.3 77.7C54.3 79 53.5 80.2 52.9 80.8C52.3 81.4 51.1 81.6 49.8 81.6C48.5 81.6 47.3 81.4 46.7 80.8C46.1 80.2 45.3 79 45.3 77.7L49.8 77.7H54.3Z" fill="#F5F5F5"/>
<path d="M94.8 77.7C94.8 79 94 80.2 93.4 80.8C92.8 81.4 91.6 81.6 90.3 81.6C89 81.6 87.8 81.4 87.2 80.8C86.6 80.2 85.8 79 85.8 77.7L90.3 77.7H94.8Z" fill="#F5F5F5"/>
</svg>
