<svg width="29" height="33" viewBox="0 0 29 33" fill="none" xmlns="http://www.w3.org/2000/svg">
<path d="M14.5017 2C13.0664 2 11.6898 2.52377 10.6749 3.4561C9.6599 4.38842 9.08971 5.65292 9.08971 6.97143V13.6C9.08971 14.9185 9.6599 16.183 10.6749 17.1153C11.6898 18.0477 13.0664 18.5714 14.5017 18.5714C15.9371 18.5714 17.3137 18.0477 18.3286 17.1153C19.3436 16.183 19.9138 14.9185 19.9138 13.6V6.97143C19.9138 5.65292 19.3436 4.38842 18.3286 3.4561C17.3137 2.52377 15.9371 2 14.5017 2Z" fill="black"/>
<path d="M1.99994 15.2571C2.43704 18.0159 3.94082 20.5379 6.23618 22.3618C8.53154 24.1856 11.465 25.1893 14.4999 25.1893M14.4999 25.1893C17.5349 25.1893 20.4683 24.1856 22.7637 22.3618C25.0591 20.5379 26.5628 18.0159 26.9999 15.2571M14.4999 25.1893V31M14.5017 2C13.0664 2 11.6898 2.52377 10.6749 3.4561C9.6599 4.38842 9.08971 5.65292 9.08971 6.97143V13.6C9.08971 14.9185 9.6599 16.183 10.6749 17.1153C11.6898 18.0477 13.0664 18.5714 14.5017 18.5714C15.9371 18.5714 17.3137 18.0477 18.3286 17.1153C19.3436 16.183 19.9138 14.9185 19.9138 13.6V6.97143C19.9138 5.65292 19.3436 4.38842 18.3286 3.4561C17.3137 2.52377 15.9371 2 14.5017 2Z" stroke="black" stroke-width="3" stroke-linecap="round" stroke-linejoin="round"/>
<path d="M2 15.5938C2.4371 18.2935 3.94088 20.7616 6.23624 22.5465C8.5316 24.3313 11.4651 25.3136 14.5 25.3136M14.5 25.3136C17.5349 25.3136 20.4684 24.3313 22.7638 22.5465C25.0591 20.7616 26.5629 18.2935 27 15.5938M14.5 25.3136V31" stroke="black" stroke-width="3" stroke-linecap="round" stroke-linejoin="round"/>
</svg>
