<svg width="22" height="26" viewBox="0 0 22 26" fill="none" xmlns="http://www.w3.org/2000/svg">
<path d="M1 11.9714C1.34968 14.2546 2.55271 16.3417 4.38899 17.8511C6.22528 19.3605 8.57206 20.1912 11 20.1912M11 20.1912C13.4279 20.1912 15.7747 19.3605 17.611 17.8511C19.4473 16.3417 20.6503 14.2546 21 11.9714M11 20.1912V25M11.0014 1C9.85315 1 8.75189 1.43347 7.93993 2.20505C7.12797 2.97662 6.67181 4.02311 6.67181 5.11429V10.6C6.67181 11.6912 7.12797 12.7377 7.93993 13.5092C8.75189 14.2808 9.85315 14.7143 11.0014 14.7143C12.1497 14.7143 13.251 14.2808 14.063 13.5092C14.8749 12.7377 15.3311 11.6912 15.3311 10.6V5.11429C15.3311 4.02311 14.8749 2.97662 14.063 2.20505C13.251 1.43347 12.1497 1 11.0014 1Z" stroke="#B780FF" stroke-width="2" stroke-linecap="round" stroke-linejoin="round"/>
<path d="M1 12.25C1.34968 14.4843 2.55271 16.5269 4.38899 18.004C6.22528 19.4811 8.57206 20.294 11 20.294M11 20.294C13.4279 20.294 15.7747 19.4811 17.611 18.004C19.4473 16.5269 20.6503 14.4843 21 12.25M11 20.294V25" stroke="#B780FF" stroke-width="2" stroke-linecap="round" stroke-linejoin="round"/>
</svg>
