<svg width="640" height="640" viewBox="0 0 640 640" fill="none" xmlns="http://www.w3.org/2000/svg">
<path d="M315.663 17.6931C316.625 13.4338 322.694 13.4338 323.657 17.6931L365.107 201.195C365.73 203.956 368.898 205.268 371.291 203.757L530.357 103.311C534.049 100.98 538.34 105.271 536.009 108.963L435.563 268.029C434.052 270.422 435.364 273.589 438.124 274.213L621.627 315.663C625.886 316.625 625.886 322.694 621.627 323.657L438.124 365.107C435.364 365.73 434.052 368.898 435.563 371.291L536.009 530.357C538.34 534.049 534.049 538.34 530.357 536.009L371.291 435.563C368.898 434.052 365.73 435.364 365.107 438.124L323.657 621.627C322.694 625.886 316.625 625.886 315.663 621.627L274.213 438.124C273.589 435.364 270.422 434.052 268.029 435.563L108.963 536.009C105.271 538.34 100.98 534.049 103.311 530.357L203.757 371.291C205.268 368.898 203.956 365.73 201.195 365.107L17.6931 323.657C13.4338 322.694 13.4338 316.625 17.6931 315.663L201.195 274.213C203.956 273.589 205.268 270.422 203.757 268.029L103.311 108.963C100.98 105.271 105.271 100.98 108.963 103.311L268.029 203.757C270.422 205.268 273.589 203.956 274.213 201.195L315.663 17.6931Z" fill="#EE47CA"/>
<circle cx="260.594" cy="263.941" r="56.5281" fill="#F5F5F5"/>
<circle cx="378.455" cy="263.941" r="56.5281" fill="#F5F5F5"/>
<mask id="mask0_1021_581" style="mask-type:alpha" maskUnits="userSpaceOnUse" x="204" y="207" width="114" height="114">
<circle cx="260.594" cy="263.941" r="56.5281" fill="#F5F5F5"/>
</mask>
<g mask="url(#mask0_1021_581)">
<circle cx="213.453" cy="263.944" r="56.5314" fill="#0A0A0A"/>
</g>
<mask id="mask1_1021_581" style="mask-type:alpha" maskUnits="userSpaceOnUse" x="321" y="207" width="114" height="114">
<circle cx="378.455" cy="263.941" r="56.5281" fill="#F5F5F5"/>
</mask>
<g mask="url(#mask1_1021_581)">
<circle cx="331.314" cy="263.944" r="56.5314" fill="#0A0A0A"/>
</g>
<path d="M281.517 273.921C281.517 277.716 280.009 281.356 277.325 284.04C274.641 286.724 271.001 288.232 267.205 288.232C263.41 288.232 259.769 286.724 257.085 284.04C254.401 281.356 252.894 277.716 252.894 273.921L267.205 273.921H281.517Z" fill="#F5F5F5"/>
<path d="M399.379 273.921C399.379 277.716 397.871 281.356 395.187 284.04C392.503 286.724 388.863 288.232 385.067 288.232C381.271 288.232 377.631 286.724 374.947 284.04C372.263 281.356 370.755 277.716 370.755 273.921L385.067 273.921H399.379Z" fill="#F5F5F5"/>
<mask id="path-10-inside-1_1021_581" fill="white">
<path d="M331.686 313.371C326.698 328.308 314.998 337.86 305.554 334.707C296.11 331.553 292.497 316.887 297.485 301.95L297.485 301.948L331.686 313.369L331.686 313.371Z"/>
</mask>
<path d="M331.686 313.371C326.698 328.308 314.998 337.86 305.554 334.707C296.11 331.553 292.497 316.887 297.485 301.95L297.485 301.948L331.686 313.369L331.686 313.371Z" fill="#0A0A0A"/>
<path d="M331.686 313.371L333.629 314.02L333.629 314.02L331.686 313.371ZM305.554 334.707L304.905 336.65L304.905 336.65L305.554 334.707ZM297.485 301.95L295.542 301.301L295.542 301.301L297.485 301.95ZM297.485 301.948L298.134 300.005L296.191 299.356L295.542 301.299L297.485 301.948ZM331.686 313.369L333.63 314.018L334.278 312.075L332.335 311.426L331.686 313.369ZM331.686 313.371L329.743 312.722C327.352 319.88 323.38 325.656 318.995 329.236C314.587 332.836 310.024 334.04 306.203 332.764L305.554 334.707L304.905 336.65C310.528 338.528 316.537 336.532 321.587 332.41C326.659 328.268 331.031 321.798 333.629 314.02L331.686 313.371ZM305.554 334.707L306.203 332.764C302.382 331.488 299.458 327.784 298.096 322.257C296.742 316.761 297.037 309.757 299.428 302.599L297.485 301.95L295.542 301.301C292.944 309.08 292.551 316.878 294.118 323.237C295.677 329.567 299.282 334.772 304.905 336.65L305.554 334.707ZM297.485 301.95L299.428 302.599L299.429 302.597L297.485 301.948L295.542 301.299L295.542 301.301L297.485 301.95ZM297.485 301.948L296.836 303.891L331.038 315.312L331.686 313.369L332.335 311.426L298.134 300.005L297.485 301.948ZM331.686 313.369L329.743 312.72L329.743 312.722L331.686 313.371L333.629 314.02L333.63 314.018L331.686 313.369Z" fill="black" mask="url(#path-10-inside-1_1021_581)"/>
</svg>
