<svg width="134" height="134" viewBox="0 0 134 134" fill="none" xmlns="http://www.w3.org/2000/svg">
<path d="M54.8304 37.4541C58.6609 25.6652 75.3391 25.6652 79.1696 37.4541C80.8826 42.7263 85.7957 46.2959 91.3392 46.2959C103.735 46.2959 108.889 62.1578 98.8604 69.4438C94.3756 72.7022 92.499 78.4778 94.212 83.75C98.0425 95.539 84.5495 105.342 74.5212 98.0562C70.0364 94.7978 63.9636 94.7978 59.4788 98.0562C49.4505 105.342 35.9575 95.539 39.788 83.75C41.501 78.4778 39.6244 72.7022 35.1396 69.4438C25.1113 62.1578 30.2652 46.2959 42.6608 46.2959C48.2043 46.2959 53.1174 42.7263 54.8304 37.4541Z" fill="#F99841"/>
<circle cx="6.62561" cy="6.62561" r="6.62561" transform="matrix(-1 0 0 1 80.5472 52.2979)" fill="#F5F5F5"/>
<circle cx="6.62561" cy="6.62561" r="6.62561" transform="matrix(-1 0 0 1 66.7345 52.2979)" fill="#F5F5F5"/>
<mask id="mask0_1070_2702" style="mask-type:alpha" maskUnits="userSpaceOnUse" x="67" y="52" width="14" height="14">
<circle cx="6.62561" cy="6.62561" r="6.62561" transform="matrix(-1 0 0 1 80.5476 52.2975)" fill="#F5F5F5"/>
</mask>
<g mask="url(#mask0_1070_2702)">
<circle cx="6.62599" cy="6.62599" r="6.62599" transform="matrix(-1 0 0 1 86.0753 52.2975)" fill="#0A0A0A"/>
</g>
<mask id="mask1_1070_2702" style="mask-type:alpha" maskUnits="userSpaceOnUse" x="53" y="52" width="14" height="14">
<circle cx="6.62561" cy="6.62561" r="6.62561" transform="matrix(-1 0 0 1 66.7346 52.298)" fill="#F5F5F5"/>
</mask>
<g mask="url(#mask1_1070_2702)">
<circle cx="6.62599" cy="6.62599" r="6.62599" transform="matrix(-1 0 0 1 72.2603 52.298)" fill="#0A0A0A"/>
</g>
<mask id="path-8-inside-1_1070_2702" fill="white">
<path d="M65.6055 66.9208C65.1235 65.1217 65.6543 63.416 66.7917 63.1109C67.9293 62.8061 69.2428 64.0178 69.7249 65.817L65.6055 66.9208Z"/>
</mask>
<path d="M65.6055 66.9208C65.1235 65.1217 65.6543 63.416 66.7917 63.1109C67.9293 62.8061 69.2428 64.0178 69.7249 65.817L65.6055 66.9208Z" fill="#0A0A0A"/>
<path d="M65.6055 66.9208L65.2643 67.0122L65.3557 67.3534L65.697 67.262L65.6055 66.9208ZM66.7917 63.1109L66.7003 62.7697L66.7002 62.7697L66.7917 63.1109ZM69.7249 65.817L69.8163 66.1582L70.1575 66.0668L70.0661 65.7256L69.7249 65.817ZM65.6055 66.9208L65.9467 66.8294C65.7203 65.9843 65.7367 65.177 65.9286 64.5606C66.1221 63.9392 66.4727 63.5622 66.8832 63.4521L66.7917 63.1109L66.7002 62.7697C65.9733 62.9647 65.4898 63.5931 65.254 64.3506C65.0166 65.1131 65.0087 66.0583 65.2643 67.0122L65.6055 66.9208ZM66.7917 63.1109L66.8831 63.4521C67.2937 63.3421 67.7861 63.4932 68.2645 63.9346C68.7391 64.3724 69.1572 65.0633 69.3836 65.9084L69.7249 65.817L70.0661 65.7256C69.8104 64.7715 69.3307 63.9569 68.7436 63.4153C68.1604 62.8773 67.4273 62.5749 66.7003 62.7697L66.7917 63.1109ZM69.7249 65.817L69.6334 65.4758L65.5141 66.5796L65.6055 66.9208L65.697 67.262L69.8163 66.1582L69.7249 65.817Z" fill="black" mask="url(#path-8-inside-1_1070_2702)"/>
<path d="M61.3755 59.8942C61.3755 60.339 61.1988 60.7656 60.8843 61.0801C60.5698 61.3946 60.1432 61.5713 59.6984 61.5713C59.2537 61.5713 58.8271 61.3946 58.5126 61.0801C58.1981 60.7656 58.0214 60.339 58.0214 59.8942L59.6984 59.8942H61.3755Z" fill="#F5F5F5"/>
<path d="M75.1902 59.8942C75.1902 60.339 75.0135 60.7656 74.699 61.0801C74.3845 61.3946 73.9579 61.5713 73.5131 61.5713C73.0683 61.5713 72.6418 61.3946 72.3273 61.0801C72.0128 60.7656 71.8361 60.339 71.8361 59.8942L73.5131 59.8942H75.1902Z" fill="#F5F5F5"/>
</svg>
