<svg width="393" height="534" viewBox="0 0 393 534" fill="none" xmlns="http://www.w3.org/2000/svg">
<rect x="-1" width="395.049" height="856.632" rx="24.9505" fill="#47AFF4"/>
<circle cx="140.233" cy="108.908" r="53.9077" fill="#F5F5F5"/>
<circle cx="252.631" cy="108.908" r="53.9077" fill="#F5F5F5"/>
<mask id="mask0_1_4847" style="mask-type:alpha" maskUnits="userSpaceOnUse" x="86" y="55" width="109" height="108">
<circle cx="140.232" cy="108.908" r="53.9077" fill="#F5F5F5"/>
</mask>
<g mask="url(#mask0_1_4847)">
<circle cx="181.984" cy="108.911" r="53.9108" fill="#0A0A0A"/>
</g>
<mask id="mask1_1_4847" style="mask-type:alpha" maskUnits="userSpaceOnUse" x="198" y="55" width="109" height="108">
<circle cx="252.631" cy="108.908" r="53.9077" fill="#F5F5F5"/>
</mask>
<g mask="url(#mask1_1_4847)">
<circle cx="291.17" cy="108.911" r="53.9108" fill="#0A0A0A"/>
</g>
<path d="M100.777 133.678H124.919C133.755 133.678 140.919 140.842 140.919 149.678V321.6C140.919 330.437 133.755 337.6 124.919 337.6H116.777C107.94 337.6 100.777 330.437 100.777 321.6V133.678Z" fill="#F5F5F5"/>
<rect x="254.921" y="144.918" width="32.9243" height="95.7798" rx="16.4621" fill="#F5F5F5"/>
<path d="M211.568 174.927C211.568 158.87 182.666 158.067 182.666 174.927" stroke="#0A0A0A" stroke-width="8.02842" stroke-linecap="round"/>
<path d="M144.111 120.03C144.111 123.65 142.673 127.121 140.113 129.681C137.554 132.241 134.082 133.678 130.463 133.678C126.843 133.678 123.371 132.241 120.812 129.681C118.252 127.121 116.814 123.65 116.814 120.03L130.463 120.03H144.111Z" fill="#F5F5F5"/>
<path d="M254.922 120.03C254.922 123.65 253.484 127.121 250.924 129.681C248.365 132.24 244.893 133.678 241.273 133.678C237.654 133.678 234.182 132.24 231.622 129.681C229.063 127.121 227.625 123.65 227.625 120.03L241.273 120.03H254.922Z" fill="#F5F5F5"/>
</svg>
