<svg width="337" height="138" viewBox="0 0 337 138" fill="none" xmlns="http://www.w3.org/2000/svg">
<circle cx="105.472" cy="69.472" r="60.4719" fill="#F5F5F5"/>
<circle cx="231.556" cy="69.472" r="60.4719" fill="#F5F5F5"/>
<mask id="mask0_396_61" style="mask-type:alpha" maskUnits="userSpaceOnUse" x="45" y="9" width="121" height="121">
<circle cx="105.472" cy="69.4719" r="60.4719" fill="#F5F5F5"/>
</mask>
<g mask="url(#mask0_396_61)">
<circle cx="55.0428" cy="69.4754" r="60.4755" fill="#0A0A0A"/>
</g>
<mask id="mask1_396_61" style="mask-type:alpha" maskUnits="userSpaceOnUse" x="171" y="9" width="122" height="121">
<circle cx="231.557" cy="69.4719" r="60.4719" fill="#F5F5F5"/>
</mask>
<g mask="url(#mask1_396_61)">
<circle cx="181.126" cy="69.4754" r="60.4755" fill="#0A0A0A"/>
</g>
<path d="M127.855 80.1475C127.855 84.208 126.242 88.1023 123.371 90.9735C120.5 93.8447 116.606 95.4578 112.545 95.4578C108.485 95.4578 104.59 93.8447 101.719 90.9735C98.8479 88.1023 97.2349 84.2081 97.2349 80.1475L112.545 80.1475H127.855Z" fill="#F5F5F5"/>
<path d="M253.94 80.1475C253.94 84.208 252.327 88.1023 249.456 90.9735C246.585 93.8447 242.691 95.4578 238.63 95.4578C234.57 95.4578 230.675 93.8447 227.804 90.9735C224.933 88.1023 223.32 84.2081 223.32 80.1475L238.63 80.1475H253.94Z" fill="#F5F5F5"/>
</svg>
