<svg width="142" height="142" viewBox="0 0 142 142" fill="none" xmlns="http://www.w3.org/2000/svg">
<path d="M58.1039 39.6902C62.163 27.1974 79.837 27.1974 83.8961 39.6902C85.7114 45.2771 90.9178 49.0598 96.7923 49.0598C109.928 49.0598 115.389 65.8687 104.763 73.5897C100.01 77.0426 98.0213 83.1631 99.8366 88.75C103.896 101.243 89.5972 111.631 78.9702 103.91C74.2177 100.457 67.7823 100.457 63.0298 103.91C52.4028 111.631 38.1042 101.243 42.1634 88.75C43.9787 83.1631 41.99 77.0426 37.2375 73.5897C26.6105 65.8687 32.0721 49.0598 45.2077 49.0598C51.0822 49.0598 56.2886 45.2771 58.1039 39.6902Z" fill="#F99841"/>
<circle cx="7.02116" cy="7.02116" r="7.02116" transform="matrix(-1 0 0 1 85.356 55.4197)" fill="#F5F5F5"/>
<circle cx="7.02116" cy="7.02116" r="7.02116" transform="matrix(-1 0 0 1 70.7169 55.4197)" fill="#F5F5F5"/>
<mask id="mask0_3250_7932" style="mask-type:alpha" maskUnits="userSpaceOnUse" x="71" y="55" width="15" height="15">
<circle cx="7.02116" cy="7.02116" r="7.02116" transform="matrix(-1 0 0 1 85.356 55.4197)" fill="#F5F5F5"/>
</mask>
<g mask="url(#mask0_3250_7932)">
<circle cx="7.02158" cy="7.02158" r="7.02158" transform="matrix(-1 0 0 1 91.2117 55.4197)" fill="#0A0A0A"/>
</g>
<mask id="mask1_3250_7932" style="mask-type:alpha" maskUnits="userSpaceOnUse" x="56" y="55" width="15" height="15">
<circle cx="7.02116" cy="7.02116" r="7.02116" transform="matrix(-1 0 0 1 70.7169 55.4197)" fill="#F5F5F5"/>
</mask>
<g mask="url(#mask1_3250_7932)">
<circle cx="7.02158" cy="7.02158" r="7.02158" transform="matrix(-1 0 0 1 76.5726 55.4197)" fill="#0A0A0A"/>
</g>
<mask id="path-8-inside-1_3250_7932" fill="white">
<path d="M69.5199 70.9167C69.0091 69.0102 69.5723 67.2026 70.7776 66.8794C71.9831 66.5564 73.3746 67.8403 73.8854 69.7469L69.5199 70.9167Z"/>
</mask>
<path d="M69.5199 70.9167C69.0091 69.0102 69.5723 67.2026 70.7776 66.8794C71.9831 66.5564 73.3746 67.8403 73.8854 69.7469L69.5199 70.9167Z" fill="#0A0A0A"/>
<path d="M69.5199 70.9167L69.1061 71.0276L69.217 71.4414L69.6308 71.3305L69.5199 70.9167ZM70.7776 66.8794L70.6667 66.4656L70.6666 66.4656L70.7776 66.8794ZM73.8854 69.7469L73.9963 70.1608L74.4102 70.0499L74.2993 69.6361L73.8854 69.7469ZM69.5199 70.9167L69.9337 70.8058C69.696 69.9186 69.7142 69.0737 69.9142 68.4317C70.1161 67.7836 70.4777 67.4034 70.8885 67.2932L70.7776 66.8794L70.6666 66.4656C69.8721 66.6786 69.3495 67.3637 69.0961 68.1768C68.8409 68.9961 68.8329 70.0083 69.1061 71.0276L69.5199 70.9167ZM70.7776 66.8794L70.8885 67.2932C71.2994 67.1831 71.8026 67.3316 72.3015 67.7919C72.7956 68.2479 73.2339 68.9706 73.4716 69.8578L73.8854 69.7469L74.2993 69.6361C74.0261 68.6167 73.5132 67.7441 72.8825 67.1622C72.2566 66.5846 71.4613 66.2526 70.6667 66.4656L70.7776 66.8794ZM73.8854 69.7469L73.7745 69.3331L69.409 70.5029L69.5199 70.9167L69.6308 71.3305L73.9963 70.1608L73.8854 69.7469Z" fill="black" mask="url(#path-8-inside-1_3250_7932)"/>
<path d="M65.0398 63.4713C65.0398 63.9428 64.8525 64.3949 64.5191 64.7283C64.1858 65.0617 63.7336 65.249 63.2622 65.249C62.7907 65.249 62.3386 65.0617 62.0052 64.7283C61.6718 64.3949 61.4846 63.9428 61.4846 63.4713L63.2622 63.4713H65.0398Z" fill="#F5F5F5"/>
<path d="M79.6789 63.4713C79.6789 63.9428 79.4917 64.3949 79.1583 64.7283C78.8249 65.0617 78.3728 65.249 77.9013 65.249C77.4299 65.249 76.9777 65.0617 76.6444 64.7283C76.311 64.3949 76.1237 63.9428 76.1237 63.4713L77.9013 63.4713H79.6789Z" fill="#F5F5F5"/>
</svg>
