<svg width="77" height="77" viewBox="0 0 77 77" fill="none" xmlns="http://www.w3.org/2000/svg" style="z-index: 2; position: relative;">
<path d="M35.9573 1.84735C37.4735 0.745804 39.5265 0.745806 41.0427 1.84736L72.573 24.7555C74.0892 25.857 74.7236 27.8096 74.1445 29.5919L62.1009 66.6581C61.5218 68.4404 59.8609 69.6472 57.9868 69.6472H19.0132C17.1391 69.6472 15.4782 68.4404 14.8991 66.6581L2.85553 29.5919C2.27642 27.8096 2.91084 25.857 4.42699 24.7555L35.9573 1.84735Z" fill="#5CC463"/>
<line x1="36.6811" y1="38.9042" x2="40.3189" y2="38.9042" stroke="#0A0A0A" stroke-width="1.0105" stroke-linecap="round"/>
<circle cx="31.4413" cy="28.4097" r="6.7851" fill="#F5F5F5"/>
<circle cx="45.5883" cy="28.4097" r="6.7851" fill="#F5F5F5"/>
<mask id="mask0_3250_7971" style="mask-type:alpha" maskUnits="userSpaceOnUse" x="24" y="21" width="15" height="15">
<circle cx="31.4413" cy="28.4097" r="6.7851" fill="#F5F5F5"/>
</mask>
<g mask="url(#mask0_3250_7971)">
<circle cx="25.7828" cy="28.4101" r="6.7855" fill="#0A0A0A"/>
</g>
<mask id="mask1_3250_7971" style="mask-type:alpha" maskUnits="userSpaceOnUse" x="38" y="21" width="15" height="15">
<circle cx="45.5883" cy="28.4097" r="6.7851" fill="#F5F5F5"/>
</mask>
<g mask="url(#mask1_3250_7971)">
<circle cx="39.9298" cy="28.4101" r="6.7855" fill="#0A0A0A"/>
</g>
<path d="M33.7506 29.4055C33.7506 29.8611 33.5696 30.298 33.2475 30.6202C32.9253 30.9423 32.4884 31.1233 32.0328 31.1233C31.5772 31.1233 31.1402 30.9423 30.8181 30.6202C30.4959 30.298 30.3149 29.8611 30.3149 29.4055L32.0328 29.4055H33.7506Z" fill="#F5F5F5"/>
<path d="M47.8976 29.4055C47.8976 29.8611 47.7166 30.298 47.3945 30.6202C47.0723 30.9423 46.6354 31.1233 46.1798 31.1233C45.7242 31.1233 45.2872 30.9423 44.9651 30.6202C44.6429 30.298 44.4619 29.8611 44.4619 29.4055L46.1798 29.4055H47.8976Z" fill="#F5F5F5"/>
</svg>
