<svg width="108" height="108" viewBox="0 0 108 108" fill="none" xmlns="http://www.w3.org/2000/svg">
<path d="M36.7793 21.3912C36.5644 20.4949 37.7137 19.929 38.293 20.646L51.7955 37.3553C52.1709 37.8199 52.8932 37.7731 53.2055 37.2638L64.4355 18.9497C64.9173 18.164 66.1301 18.5765 66.0328 19.4931L63.7652 40.8561C63.7022 41.4501 64.246 41.9277 64.8269 41.7884L85.7178 36.7792C86.6141 36.5643 87.1799 37.7136 86.463 38.2929L69.7537 51.7954C69.289 52.1709 69.3359 52.8931 69.8452 53.2054L88.1592 64.4354C88.945 64.9173 88.5324 66.13 87.6159 66.0328L66.2529 63.7652C65.6588 63.7021 65.1813 64.246 65.3206 64.8269L70.3297 85.7177C70.5447 86.614 69.3954 87.1799 68.816 86.463L55.3135 69.7536C54.9381 69.289 54.2158 69.3358 53.9036 69.8451L42.6735 88.1592C42.1917 88.945 40.9789 88.5324 41.0762 87.6158L43.3438 66.2528C43.4068 65.6588 42.863 65.1812 42.2821 65.3205L21.3913 70.3297C20.4949 70.5446 19.9291 69.3953 20.646 68.816L37.3553 55.3135C37.82 54.938 37.7731 54.2158 37.2639 53.9035L18.9498 42.6735C18.164 42.1917 18.5766 40.9789 19.4932 41.0762L40.8562 43.3437C41.4502 43.4068 41.9278 42.863 41.7885 42.282L36.7793 21.3912Z" fill="#EE47CA"/>
<circle cx="43.8703" cy="50.5754" r="7.08666" transform="rotate(-26.2124 43.8703 50.5754)" fill="#F5F5F5"/>
<circle cx="57.1265" cy="44.0489" r="7.08666" transform="rotate(-26.2124 57.1265 44.0489)" fill="#F5F5F5"/>
<mask id="mask0_3250_7956" style="mask-type:alpha" maskUnits="userSpaceOnUse" x="36" y="43" width="15" height="15">
<circle cx="43.8703" cy="50.5754" r="7.08666" transform="rotate(-26.2124 43.8703 50.5754)" fill="#F5F5F5"/>
</mask>
<g mask="url(#mask0_3250_7956)">
<circle cx="38.5682" cy="53.1861" r="7.08707" transform="rotate(-26.2124 38.5682 53.1861)" fill="#0A0A0A"/>
</g>
<mask id="mask1_3250_7956" style="mask-type:alpha" maskUnits="userSpaceOnUse" x="50" y="36" width="15" height="16">
<circle cx="57.1265" cy="44.0489" r="7.08666" transform="rotate(-26.2124 57.1265 44.0489)" fill="#F5F5F5"/>
</mask>
<g mask="url(#mask1_3250_7956)">
<circle cx="51.8247" cy="46.6595" r="7.08707" transform="rotate(-26.2124 51.8247 46.6595)" fill="#0A0A0A"/>
</g>
<path d="M46.1149 50.6294C46.3251 51.0563 46.3571 51.5493 46.2038 51.9998C46.0506 52.4503 45.7246 52.8214 45.2977 53.0316C44.8708 53.2418 44.3779 53.2738 43.9274 53.1205C43.4769 52.9673 43.1057 52.6413 42.8955 52.2144L44.5052 51.4219L46.1149 50.6294Z" fill="#F5F5F5"/>
<path d="M59.3711 44.1029C59.5813 44.5299 59.6133 45.0228 59.46 45.4733C59.3068 45.9238 58.9808 46.2949 58.5539 46.5051C58.127 46.7153 57.6341 46.7473 57.1836 46.594C56.7331 46.4408 56.3619 46.1148 56.1517 45.6879L57.7614 44.8954L59.3711 44.1029Z" fill="#F5F5F5"/>
<mask id="path-10-inside-1_3250_7956" fill="white">
<path d="M54.5567 52.1835C54.8223 54.1362 54.037 55.8554 52.8024 56.0234C51.5679 56.191 50.3517 54.7442 50.0861 52.7916L54.5567 52.1835Z"/>
</mask>
<path d="M54.5567 52.1835C54.8223 54.1362 54.037 55.8554 52.8024 56.0234C51.5679 56.191 50.3517 54.7442 50.0861 52.7916L54.5567 52.1835Z" fill="#0A0A0A"/>
<path d="M54.5567 52.1835L54.9852 52.1252L54.9269 51.6967L54.4984 51.755L54.5567 52.1835ZM52.8024 56.0234L52.8606 56.4519L52.8607 56.4518L52.8024 56.0234ZM50.0861 52.7916L50.0278 52.3631L49.5993 52.4214L49.6576 52.8499L50.0861 52.7916ZM54.5567 52.1835L54.1282 52.2418C54.2517 53.1498 54.1273 53.9834 53.8488 54.593C53.5676 55.2085 53.1627 55.5379 52.7441 55.5949L52.8024 56.0234L52.8607 56.4518C53.6766 56.3408 54.2817 55.7266 54.6354 54.9524C54.9918 54.1723 55.1273 53.1699 54.9852 52.1252L54.5567 52.1835ZM52.8024 56.0234L52.7442 55.5949C52.3256 55.6517 51.8474 55.4424 51.4119 54.9243C50.9807 54.4113 50.6381 53.6412 50.5146 52.7333L50.0861 52.7916L49.6576 52.8499C49.7997 53.8946 50.198 54.8242 50.7499 55.4808C51.2976 56.1324 52.0447 56.5627 52.8606 56.4519L52.8024 56.0234ZM50.0861 52.7916L50.1444 53.2201L54.615 52.612L54.5567 52.1835L54.4984 51.755L50.0278 52.3631L50.0861 52.7916Z" fill="black" mask="url(#path-10-inside-1_3250_7956)"/>
</svg>
