<svg width="108" height="108" viewBox="0 0 108 108" fill="none" xmlns="http://www.w3.org/2000/svg" style="z-index: 3; position: relative;">
<circle cx="54" cy="54" r="54" fill="#FED046"/>
<circle cx="26.5358" cy="41.8249" r="10.9213" fill="#F5F5F5"/>
<circle cx="49.3069" cy="41.8249" r="10.9213" fill="#F5F5F5"/>
<mask id="mask0_3250_7984" style="mask-type:alpha" maskUnits="userSpaceOnUse" x="15" y="30" width="23" height="23">
<circle cx="26.5358" cy="41.8249" r="10.9213" fill="#F5F5F5"/>
</mask>
<g mask="url(#mask0_3250_7984)">
<circle cx="17.4282" cy="41.8256" r="10.922" fill="#0A0A0A"/>
</g>
<mask id="mask1_3250_7984" style="mask-type:alpha" maskUnits="userSpaceOnUse" x="38" y="30" width="23" height="23">
<circle cx="49.3069" cy="41.8249" r="10.9213" fill="#F5F5F5"/>
</mask>
<g mask="url(#mask1_3250_7984)">
<circle cx="40.1989" cy="41.8256" r="10.922" fill="#0A0A0A"/>
</g>
<circle cx="26.5358" cy="41.8249" r="10.9213" fill="#F5F5F5"/>
<circle cx="49.3069" cy="41.8249" r="10.9213" fill="#F5F5F5"/>
<mask id="mask2_3250_7984" style="mask-type:alpha" maskUnits="userSpaceOnUse" x="15" y="30" width="23" height="23">
<circle cx="26.5358" cy="41.8249" r="10.9213" fill="#F5F5F5"/>
</mask>
<g mask="url(#mask2_3250_7984)">
<circle cx="17.4282" cy="41.8256" r="10.922" fill="#0A0A0A"/>
</g>
<mask id="mask3_3250_7984" style="mask-type:alpha" maskUnits="userSpaceOnUse" x="38" y="30" width="23" height="23">
<circle cx="49.3069" cy="41.8249" r="10.9213" fill="#F5F5F5"/>
</mask>
<g mask="url(#mask3_3250_7984)">
<circle cx="40.1989" cy="41.8256" r="10.922" fill="#0A0A0A"/>
</g>
<path d="M34.4819 52.6989C34.4819 55.9519 40.3374 56.1145 40.3374 52.6989" stroke="#0A0A0A" stroke-width="1.62651" stroke-linecap="round"/>
<path d="M30.5783 43.753C30.5783 44.4863 30.287 45.1896 29.7685 45.7082C29.2499 46.2267 28.5466 46.518 27.8133 46.518C27.0799 46.518 26.3766 46.2267 25.8581 45.7082C25.3395 45.1896 25.0482 44.4863 25.0482 43.753L27.8133 43.753H30.5783Z" fill="#F5F5F5"/>
<path d="M53.3494 43.753C53.3494 44.4863 53.0581 45.1896 52.5395 45.7082C52.021 46.2267 51.3177 46.518 50.5843 46.518C49.851 46.518 49.1477 46.2267 48.6291 45.7082C48.1106 45.1896 47.8193 44.4863 47.8193 43.753L50.5843 43.753H53.3494Z" fill="#F5F5F5"/>
</svg>
