<svg width="27" height="12" viewBox="0 0 27 12" fill="none" xmlns="http://www.w3.org/2000/svg">
<path opacity="0.35" d="M21.0908 0.333252C22.6975 0.333252 24 1.52748 24 3.00024V9.00024C23.9998 10.4729 22.6973 11.6663 21.0908 11.6663H2.90918C1.30265 11.6663 0.000191714 10.4729 0 9.00024V3.00024C0 1.52748 1.30253 0.333252 2.90918 0.333252H21.0908ZM2.90918 1.33325C1.95803 1.33325 1.17741 2.00276 1.09766 2.85571L1.09082 3.00024V9.00024C1.091 9.87206 1.82147 10.5874 2.75195 10.6604L2.90918 10.6663H21.0908C22.0421 10.6663 22.8228 9.99691 22.9023 9.1438L22.9092 9.00024V3.00024C22.9092 2.1283 22.1786 1.41215 21.248 1.33911L21.0908 1.33325H2.90918ZM25 4.00024C25.8047 4.33905 26.3281 5.12715 26.3281 6.00024C26.328 6.87324 25.8046 7.66151 25 8.00024V4.00024Z" fill="white"/>
</svg>
