<svg width="86" height="61" viewBox="0 0 86 61" fill="none" xmlns="http://www.w3.org/2000/svg">
<path d="M45.6234 58.1718C44.8165 59.3343 43.1293 59.422 42.2063 58.3494L2.68441 12.4222C1.54783 11.1014 2.35921 9.04756 4.0916 8.86017L81.2871 0.50978C83.1306 0.310356 84.3543 2.37093 83.297 3.89427L45.6234 58.1718Z" fill="#EE4947"/>
<path d="M42.8121 20.5713C42.8121 21.4914 42.6309 22.4025 42.2788 23.2526C41.9267 24.1026 41.4106 24.875 40.76 25.5256C40.1094 26.1762 39.337 26.6923 38.487 27.0444C37.6369 27.3965 36.7259 27.5777 35.8058 27.5777C34.8857 27.5777 33.9746 27.3965 33.1245 27.0444C32.2745 26.6923 31.5021 26.1762 30.8515 25.5256C30.2009 24.875 29.6848 24.1026 29.3327 23.2526C28.9806 22.4025 28.7994 21.4914 28.7994 20.5713L35.8058 20.5713H42.8121Z" fill="#F5F5F5"/>
<path d="M56.7944 20.5713C56.7944 21.4914 56.6132 22.4025 56.2611 23.2526C55.909 24.1026 55.3929 24.875 54.7423 25.5256C54.0917 26.1762 53.3193 26.6923 52.4692 27.0444C51.6192 27.3965 50.7081 27.5777 49.788 27.5777C48.8679 27.5777 47.9568 27.3965 47.1068 27.0444C46.2567 26.6923 45.4843 26.1762 44.8337 25.5256C44.1831 24.875 43.667 24.1026 43.3149 23.2526C42.9628 22.4025 42.7816 21.4914 42.7816 20.5713L49.788 20.5713H56.7944Z" fill="#F5F5F5"/>
<path d="M40.1743 20.6346C40.1743 21.2101 40.0609 21.78 39.8407 22.3117C39.6204 22.8434 39.2976 23.3265 38.8906 23.7335C38.4837 24.1404 38.0006 24.4633 37.4689 24.6835C36.9372 24.9037 36.3673 25.0171 35.7917 25.0171C35.2162 25.0171 34.6463 24.9037 34.1146 24.6835C33.5829 24.4633 33.0998 24.1404 32.6928 23.7335C32.2859 23.3265 31.9631 22.8434 31.7428 22.3117C31.5226 21.78 31.4092 21.2101 31.4092 20.6346L35.7917 20.6346H40.1743Z" fill="#0A0A0A"/>
<path d="M54.1259 20.6346C54.1259 21.2101 54.0126 21.78 53.7923 22.3117C53.5721 22.8434 53.2493 23.3265 52.8423 23.7335C52.4354 24.1404 51.9522 24.4633 51.4205 24.6835C50.8888 24.9037 50.3189 25.0171 49.7434 25.0171C49.1679 25.0171 48.598 24.9037 48.0663 24.6835C47.5346 24.4633 47.0515 24.1404 46.6445 23.7335C46.2376 23.3265 45.9147 22.8434 45.6945 22.3117C45.4743 21.78 45.3609 21.2101 45.3609 20.6346L49.7434 20.6346H54.1259Z" fill="#0A0A0A"/>
<path d="M44.8685 29.1517C44.8685 27.0648 41.1121 26.9605 41.1121 29.1517" stroke="#0A0A0A" stroke-width="1.04345" stroke-linecap="round"/>
<path d="M33.1818 22.2255C33.1818 22.696 32.9949 23.1472 32.6623 23.4798C32.3296 23.8125 31.8784 23.9994 31.408 23.9994C30.9375 23.9994 30.4863 23.8125 30.1536 23.4798C29.821 23.1472 29.6341 22.696 29.6341 22.2255L31.408 22.2255H33.1818Z" fill="#F5F5F5"/>
<path d="M47.7902 22.2255C47.7902 22.696 47.6033 23.1472 47.2707 23.4798C46.938 23.8125 46.4868 23.9994 46.0164 23.9994C45.5459 23.9994 45.0947 23.8125 44.762 23.4798C44.4294 23.1472 44.2425 22.696 44.2425 22.2255L46.0164 22.2255H47.7902Z" fill="#F5F5F5"/>
</svg>
