<svg width="85" height="38" viewBox="0 0 85 38" fill="none" xmlns="http://www.w3.org/2000/svg">
<g clip-path="url(#clip0_3250_8006)">
<path d="M0 0H13.8872C16.5706 0 18.8647 0.468922 20.7692 1.40927C22.6738 2.34712 24.1261 3.69119 25.1236 5.43648C26.1211 7.18428 26.6211 9.22296 26.6211 11.5575C26.6211 13.8921 26.1186 15.8882 25.111 17.5933C24.106 19.2985 22.6285 20.605 20.6813 21.5102C18.734 22.4155 16.4124 22.8693 13.7138 22.8693H4.31917V16.8686H12.563C14.0354 16.8686 15.2465 16.668 16.1938 16.2693C17.141 15.8706 17.8546 15.2763 18.3295 14.4939C18.8044 13.7116 19.0405 12.7311 19.0405 11.555C19.0405 10.379 18.8044 9.3358 18.3295 8.51832C17.8546 7.70335 17.136 7.08648 16.1711 6.67022C15.2063 6.25396 13.9952 6.04583 12.5404 6.04583H7.36194V35.4575H0V0ZM27.9 35.46H19.7039L11.0907 19.3462H19.0657L27.9 35.46Z" fill="#B780FF"/>
<path d="M36.2511 35.5898C34.2652 34.4755 32.7362 32.8884 31.6667 30.8233C30.5972 28.7608 30.0599 26.336 30.0599 23.5516C30.0599 20.7672 30.5946 18.3801 31.6667 16.2924C32.7362 14.2047 34.2451 12.5874 36.1908 11.4404C38.1366 10.2935 40.3911 9.71997 42.957 9.71997C45.3597 9.71997 47.5012 10.223 49.3817 11.2317C51.2622 12.2378 52.7409 13.757 53.8205 15.7894C54.9001 17.8192 55.4399 20.3018 55.4399 23.2322V25.2721H33.03V20.7269H48.5984C48.5984 19.6453 48.3624 18.6845 47.8879 17.8419C47.4134 16.9992 46.7606 16.3402 45.9271 15.8648C45.0936 15.3895 44.1445 15.153 43.0825 15.153C41.9553 15.153 40.9485 15.4121 40.0673 15.9277C39.186 16.4434 38.4931 17.1527 37.996 18.0532C37.4964 18.9536 37.2403 19.9371 37.2227 21.0011V25.2746C37.2227 26.6001 37.4763 27.7647 37.9834 28.7633C38.4906 29.7619 39.2061 30.524 40.1275 31.0472C41.0514 31.5704 42.126 31.832 43.3512 31.832C44.1671 31.832 44.9128 31.7137 45.5831 31.4748C46.2535 31.2383 46.8209 30.9264 47.2878 30.5416C47.7548 30.1568 48.1088 29.7015 48.3549 29.1783H55.2691C54.9252 30.8007 54.2197 32.2193 53.1477 33.4392C52.0781 34.6592 50.6948 35.5999 49.0051 36.2639C47.3155 36.9279 45.3973 37.26 43.2558 37.26C40.5744 37.26 38.242 36.7041 36.2561 35.5898H36.2511Z" fill="#B780FF"/>
<path d="M74.8844 35.4601H66.7278L57.4199 8.82007H65.11L70.6707 27.9523H70.9641L76.5498 8.82007H84.2399L74.8844 35.4601Z" fill="#B780FF"/>
</g>
<defs>
<clipPath id="clip0_3250_8006">
<rect width="84.24" height="37.26" fill="white"/>
</clipPath>
</defs>
</svg>
